<svg width="139" height="68" viewBox="0 0 139 68" fill="none" xmlns="http://www.w3.org/2000/svg">
<path d="M2.40622 37V12.3906H5.46481V23.1133H8.62888V26.1016H5.46481V37H2.40622ZM10.3867 26.1016V23.1133H13.5156V12.3906H16.6093V37H13.5156V26.1016H10.3867ZM19.3515 31.7969V23.1133C19.3515 22.0117 19.8437 20.9336 20.8281 19.8789C22.0468 18.6133 23.5703 17.9805 25.3984 17.9805V20.8281C24.0156 20.8281 23.0547 21.4023 22.5156 22.5508C22.3515 22.9023 22.2695 23.2539 22.2695 23.6055V31.3398C22.2695 32.207 22.6679 32.9453 23.4648 33.5547C24.0273 33.9766 24.6718 34.1875 25.3984 34.1875V37.0352C23.1718 37.0352 21.4492 36.1328 20.2304 34.3281C19.6445 33.4375 19.3515 32.5938 19.3515 31.7969ZM26.9101 37.0352V34.1875C28.1523 34.1875 29.0429 33.625 29.582 32.5C29.7695 32.125 29.8633 31.7617 29.8633 31.4102V23.6055C29.8633 22.6445 29.4531 21.8828 28.6328 21.3203C28.1172 20.9922 27.5312 20.8281 26.875 20.8281V17.9805C29.0312 17.9805 30.6953 18.8594 31.8672 20.6172C32.4531 21.4844 32.7461 22.3164 32.7461 23.1133V31.7969C32.7461 32.9453 32.2539 34.0586 31.2695 35.1367C30.1211 36.3789 28.6679 37.0117 26.9101 37.0352ZM35.4179 31.9375V18.0156H38.4062V31.5859C38.4062 32.4297 38.8281 33.1328 39.6718 33.6953C40.2343 34.0469 40.8554 34.2227 41.5351 34.2227V37.1758C39.2851 37.1758 37.5508 36.2969 36.332 34.5391C35.7226 33.6484 35.4179 32.7812 35.4179 31.9375ZM43.082 37.1758V34.2227C44.3476 34.2227 45.2734 33.7188 45.8593 32.7109C46.0703 32.3359 46.1758 31.9609 46.1758 31.5859V18.0156H49.164V31.9375C49.164 33.0391 48.6601 34.1289 47.6523 35.207C46.4336 36.4961 44.9101 37.1523 43.082 37.1758ZM51.2031 32.0078L53.9804 31.4805C53.9804 32.5352 54.5312 33.3672 55.6328 33.9766C56.1718 34.2344 56.6875 34.375 57.1797 34.3984V37.1758C54.9062 37.1758 53.207 36.3555 52.082 34.7148C51.4961 33.8477 51.2031 32.9453 51.2031 32.0078ZM51.3789 23.3594C51.3789 21.2266 52.3515 19.6445 54.2968 18.6133C55.2343 18.1211 56.1718 17.875 57.1093 17.875V20.6172C56.0312 20.6172 55.1992 21.0625 54.6133 21.9531C54.3086 22.3984 54.1562 22.8672 54.1562 23.3594C54.1562 24.1094 54.7422 24.7188 55.914 25.1875C56.8047 25.5625 58.5273 26.0547 61.082 26.6641C62.6758 26.9922 63.8125 27.7773 64.4922 29.0195C64.8437 29.6758 65.0195 30.4141 65.0195 31.2344C65.0195 33.4844 64.1172 35.1484 62.3125 36.2266C61.2578 36.8594 60.0508 37.1758 58.6914 37.1758V34.3984C59.7695 34.3984 60.6718 34.0234 61.3984 33.2734C61.914 32.7344 62.1718 32.1016 62.1718 31.375C62.1718 30.4375 61.2461 29.6875 59.3945 29.125C58.9258 28.9844 58.1758 28.7852 57.1445 28.5273C56.0429 28.2695 55.2461 28.0586 54.7539 27.8945C52.9726 27.1914 51.8945 26.125 51.5195 24.6953C51.4258 24.2734 51.3789 23.8281 51.3789 23.3594ZM58.6562 20.6523V17.875C60.6718 17.875 62.3008 18.625 63.5429 20.125C64.3164 21.0859 64.7031 22.0938 64.7031 23.1484L61.9258 23.6055C61.9258 22.3164 61.2226 21.4141 59.8164 20.8984C59.3945 20.7344 59.0078 20.6523 58.6562 20.6523ZM67.0937 31.7969V23.0781C67.1172 22 67.6328 20.9336 68.6406 19.8789C69.8593 18.6367 71.3359 18.0039 73.0703 17.9805V20.7578C71.9453 20.7578 71.0664 21.25 70.4336 22.2344C70.1758 22.6562 70.0468 23.043 70.0468 23.3945V25.7852H77.9218V23.3945C77.9218 22.3398 77.3828 21.5664 76.3047 21.0742C75.8125 20.8398 75.3086 20.7227 74.7929 20.7227V17.9805C76.4101 17.9805 77.8515 18.5547 79.1172 19.7031C80.1718 20.7109 80.7109 21.8242 80.7343 23.043V28.6328H70.0468V31.7969C70.0468 32.4531 70.4218 33.0625 71.1718 33.625C71.7812 34.0469 72.4258 34.2578 73.1054 34.2578V37C70.9726 37 69.2968 36.1328 68.0781 34.3984C67.4218 33.4844 67.0937 32.6172 67.0937 31.7969ZM74.7929 37V34.2227C76.1992 34.2227 77.2539 33.6133 77.957 32.3945C78.0976 32.1367 78.2031 31.8906 78.2734 31.6562L80.7695 32.5703C80.3476 34.1875 79.3867 35.4062 77.8867 36.2266C76.9258 36.7422 75.8945 37 74.7929 37ZM82.4922 12.3906H85.5859L91.8437 33.7656L90.7187 37H89.6289L82.4922 12.3906ZM91.0703 25.4336L95.4297 12.3906H98.5234C98.3125 13.0703 97.4336 15.7891 95.8867 20.5469C94.082 26.0781 93.0508 29.2539 92.7929 30.0742H92.4414L91.0703 25.4336ZM100.211 30.1445V18.5781C100.211 17.3359 100.738 16.0703 101.793 14.7812C103.199 13.0938 104.98 12.2383 107.137 12.2148V15.2734C105.707 15.2734 104.594 16 103.797 17.4531C103.469 18.0859 103.305 18.6484 103.305 19.1406V30.1445C103.305 31.6211 104.031 32.7695 105.484 33.5898C106.094 33.9414 106.633 34.1172 107.102 34.1172V37.1758C105.766 37.1758 104.43 36.6953 103.094 35.7344C101.195 34.3281 100.234 32.4648 100.211 30.1445ZM109.035 37.1758V34.1172C109.855 34.1172 110.687 33.7539 111.531 33.0273C112.422 32.2305 112.879 31.2695 112.902 30.1445V19.1406C112.902 18.2266 112.527 17.3477 111.777 16.5039C111.004 15.707 110.09 15.2969 109.035 15.2734V12.2148C111.402 12.2148 113.301 13.2344 114.73 15.2734C115.551 16.4453 115.961 17.5469 115.961 18.5781V30.1445C115.961 32.7461 114.801 34.7383 112.48 36.1211C111.262 36.8242 110.113 37.1758 109.035 37.1758ZM118.809 37V12.3906H121.867V37H118.809ZM123.625 25.9961V23.0078H126.965C129.285 22.9844 130.469 21.6953 130.516 19.1406C130.492 16.6562 129.297 15.3906 126.93 15.3438H123.625V12.3906H127.422C127.562 12.3906 127.703 12.3906 127.844 12.3906C131.711 12.6016 133.645 14.8516 133.645 19.1406C133.645 20.4297 133.492 21.543 133.187 22.4805C132.414 24.8008 130.492 25.9727 127.422 25.9961H123.625Z" fill="white"/>
<path d="M1.37972 64.0224L4.62546 59.5812L1.45589 55.5003L2.43978 55.4855L5.32834 59.2346L6.49221 59.2172L6.43533 55.4256L7.26323 55.4132L7.32012 59.2047L8.47199 59.1875L11.2588 55.3532L12.2427 55.3385L9.18495 59.5128L12.5625 63.8546L11.5906 63.8692L8.50751 59.955L7.33164 59.9727L7.39105 63.9322L6.56314 63.9446L6.50373 59.9851L5.31587 60.0029L2.35161 64.0078L1.37972 64.0224ZM15.4464 63.8114L15.3185 55.2923L16.1465 55.2799L16.257 62.6471L21.4259 55.2007L22.2058 55.189L22.3336 63.708L21.5057 63.7204L21.3971 56.4853L16.2863 63.7988L15.4464 63.8114ZM31.7137 63.5673L31.5971 55.7922L28.1175 55.8444L28.0965 57.6449C28.0741 58.8214 28.0048 59.7985 27.8884 60.5763C27.7721 61.3542 27.6013 61.9688 27.376 62.4202C27.1506 62.8637 26.8714 63.1839 26.5383 63.3809C26.2051 63.5699 25.8066 63.6679 25.3426 63.6749L25.3315 62.931C25.6434 62.9263 25.9182 62.8422 26.1558 62.6786C26.3933 62.515 26.5931 62.232 26.7551 61.8295C26.9171 61.427 27.0408 60.8731 27.1262 60.1677C27.2195 59.4542 27.274 58.5533 27.2897 57.465L27.3264 55.1122L32.4138 55.0358L32.5416 63.5549L31.7137 63.5673ZM39.5445 63.5098C38.9446 63.5188 38.3988 63.407 37.9073 63.1743C37.4157 62.9417 36.9909 62.624 36.6328 62.2213C36.2746 61.8107 35.9957 61.3508 35.796 60.8417C35.5963 60.3247 35.4923 59.7942 35.4841 59.2502C35.4756 58.6823 35.5675 58.1409 35.7598 57.6259C35.952 57.103 36.225 56.6388 36.579 56.2335C36.9408 55.82 37.364 55.4936 37.8484 55.2543C38.3328 55.007 38.8589 54.8791 39.4269 54.8706C40.0268 54.8616 40.5726 54.9774 41.0643 55.2181C41.5559 55.4587 41.9769 55.7845 42.3271 56.1952C42.6853 56.6059 42.9642 57.0658 43.1639 57.5748C43.3635 58.0839 43.4674 58.6064 43.4754 59.1423C43.4839 59.7103 43.3921 60.2557 43.1999 60.7787C43.0076 61.2936 42.7346 61.7578 42.3807 62.1711C42.0268 62.5765 41.6076 62.8988 41.1231 63.1381C40.6386 63.3774 40.1124 63.5013 39.5445 63.5098ZM36.324 59.2376C36.331 59.7016 36.4137 60.1484 36.5722 60.5781C36.7305 60.9997 36.9522 61.3765 37.2372 61.7082C37.5221 62.032 37.858 62.291 38.245 62.4852C38.6398 62.6713 39.0692 62.7609 39.5331 62.7539C40.0211 62.7466 40.4555 62.64 40.8365 62.4343C41.2253 62.2204 41.5532 61.9435 41.8201 61.6035C42.095 61.2553 42.3012 60.8682 42.4388 60.442C42.5764 60.0159 42.6419 59.5829 42.6353 59.143C42.6284 58.679 42.5457 58.2362 42.3874 57.8145C42.229 57.3928 42.0033 57.0162 41.7103 56.6846C41.4253 56.3528 41.0894 56.0938 40.7026 55.9076C40.3157 55.7214 39.8903 55.6317 39.4264 55.6387C38.9464 55.6459 38.512 55.7524 38.123 55.9583C37.7421 56.164 37.4142 56.441 37.1394 56.7891C36.8725 57.1292 36.6662 57.5123 36.5206 57.9385C36.3829 58.3647 36.3174 58.7977 36.324 59.2376ZM46.6105 63.3438L46.4827 54.8247L47.3106 54.8123L47.4211 62.1795L52.59 54.7331L53.3699 54.7214L53.4977 63.2405L52.6698 63.2529L52.5613 56.0177L47.4504 63.3312L46.6105 63.3438ZM49.9275 54.053C49.5356 54.0589 49.2027 54.0079 48.9291 53.8999C48.6633 53.7839 48.4609 53.6269 48.322 53.429C48.1829 53.2231 48.1075 53.0002 48.0959 52.7603L48.7558 52.7504C48.767 52.9583 48.8538 53.145 49.0163 53.3106C49.1868 53.476 49.488 53.5555 49.9199 53.549C50.3359 53.5428 50.6267 53.4624 50.7924 53.3079C50.958 53.1454 51.0431 52.9481 51.0476 52.716L51.7075 52.7061C51.7031 52.9462 51.6345 53.1713 51.5016 53.3813C51.3686 53.5833 51.171 53.7463 50.9089 53.8702C50.6546 53.9861 50.3275 54.047 49.9275 54.053ZM61.6166 63.1186L61.4888 54.5996L62.3287 54.587L62.3856 58.3786L63.6694 58.3593L66.5402 54.5238L67.5121 54.5092L64.3704 58.6848L67.8439 63.0252L66.812 63.0407L63.705 59.1269L62.3971 59.1465L62.4565 63.106L61.6166 63.1186ZM73.6249 62.9985C73.0249 63.0075 72.4792 62.8957 71.9877 62.663C71.4961 62.4304 71.0713 62.1127 70.7132 61.71C70.355 61.2994 70.0761 60.8395 69.8764 60.3304C69.6766 59.8134 69.5727 59.2829 69.5645 58.7389C69.556 58.171 69.6479 57.6295 69.8402 57.1146C70.0324 56.5917 70.3054 56.1275 70.6594 55.7222C71.0212 55.3087 71.4444 54.9823 71.9288 54.743C72.4132 54.4957 72.9393 54.3678 73.5073 54.3593C74.1072 54.3503 74.653 54.4661 75.1447 54.7068C75.6363 54.9474 76.0573 55.2731 76.4075 55.6839C76.7657 56.0946 77.0446 56.5545 77.2442 57.0635C77.4439 57.5726 77.5478 58.0951 77.5558 58.631C77.5643 59.199 77.4725 59.7444 77.2803 60.2673C77.088 60.7823 76.8149 61.2464 76.4611 61.6598C76.1071 62.0651 75.6879 62.3875 75.2035 62.6268C74.719 62.8661 74.1928 62.99 73.6249 62.9985ZM70.4044 58.7263C70.4114 59.1903 70.4941 59.6371 70.6526 60.0668C70.8109 60.4884 71.0326 60.8651 71.3176 61.1969C71.6025 61.5207 71.9384 61.7797 72.3254 61.9739C72.7202 62.16 73.1496 62.2495 73.6135 62.2426C74.1015 62.2353 74.5359 62.1287 74.9169 61.923C75.3057 61.7091 75.6336 61.4322 75.9005 61.0921C76.1753 60.744 76.3816 60.3568 76.5192 59.9307C76.6568 59.5046 76.7223 59.0716 76.7157 58.6316C76.7087 58.1677 76.6261 57.7249 76.4678 57.3032C76.3094 56.8815 76.0837 56.5049 75.7907 56.1732C75.5057 55.8415 75.1698 55.5825 74.783 55.3963C74.3961 55.21 73.9707 55.1204 73.5068 55.1274C73.0268 55.1346 72.5924 55.2411 72.2034 55.447C71.8225 55.6527 71.4946 55.9297 71.2198 56.2778C70.9528 56.6179 70.7466 57.001 70.601 57.4272C70.4633 57.8533 70.3978 58.2864 70.4044 58.7263ZM88.1901 62.72L88.086 55.7847L85.0832 61.2184L84.5552 61.2263L81.3788 55.8854L81.4828 62.8206L80.6429 62.8332L80.5151 54.3141L81.379 54.3012L84.7901 60.0827L88.0502 54.2011L88.9021 54.1883L89.03 62.7074L88.1901 62.72ZM92.605 62.6537L92.4772 54.1347L98.9084 54.0382L99.0363 62.5572L98.1964 62.5698L98.0797 54.7947L93.3282 54.866L93.4449 62.6411L92.605 62.6537ZM108.37 62.4172L108.253 54.6421L104.773 54.6943L104.752 56.4948C104.73 57.6713 104.661 58.6484 104.544 59.4262C104.428 60.2041 104.257 60.8187 104.032 61.2701C103.807 61.7136 103.527 62.0338 103.194 62.2308C102.861 62.4198 102.462 62.5178 101.999 62.5248L101.987 61.7809C102.299 61.7762 102.574 61.6921 102.812 61.5285C103.049 61.3649 103.249 61.0819 103.411 60.6794C103.573 60.2769 103.697 59.723 103.782 59.0176C103.875 58.3042 103.93 57.4032 103.946 56.3149L103.982 53.9621L109.07 53.8857L109.198 62.4048L108.37 62.4172ZM118.48 61.5214L118.491 62.2653L112.768 62.3512L112.64 53.8322L118.255 53.7479L118.267 54.4918L113.491 54.5635L113.537 57.6351L117.701 57.5727L117.711 58.2806L113.548 58.3431L113.597 61.5947L118.48 61.5214ZM121.519 62.2199L121.392 53.7009L122.231 53.6883L122.288 57.4798L123.572 57.4606L126.443 53.6251L127.415 53.6105L124.273 57.7861L127.747 62.1265L126.715 62.142L123.608 58.2281L122.3 58.2478L122.359 62.2073L121.519 62.2199ZM129.466 57.7802C129.459 57.2602 129.539 56.751 129.708 56.2524C129.884 55.7457 130.141 55.2858 130.479 54.8727C130.817 54.4516 131.236 54.1172 131.736 53.8697C132.236 53.6142 132.806 53.4816 133.446 53.472C134.206 53.4606 134.857 53.6269 135.398 53.9708C135.947 54.3066 136.354 54.7445 136.618 55.2846L135.964 55.7025C135.774 55.3293 135.538 55.0368 135.255 54.825C134.971 54.6052 134.669 54.4498 134.348 54.3586C134.034 54.2673 133.722 54.224 133.41 54.2286C132.898 54.2363 132.447 54.3471 132.058 54.5609C131.669 54.7668 131.342 55.0438 131.075 55.3918C130.816 55.7317 130.622 56.1147 130.492 56.5407C130.362 56.9587 130.301 57.3836 130.307 57.8156C130.314 58.2875 130.401 58.7383 130.567 59.1678C130.734 59.5974 130.964 59.978 131.257 60.3096C131.549 60.6333 131.889 60.8922 132.276 61.0864C132.671 61.2725 133.097 61.3621 133.552 61.3553C133.872 61.3505 134.2 61.2896 134.534 61.1726C134.868 61.0555 135.178 60.8789 135.462 60.6426C135.755 60.4062 135.986 60.1026 136.156 59.732L136.858 60.0816C136.688 60.5082 136.422 60.8722 136.058 61.1737C135.695 61.4752 135.286 61.7053 134.832 61.8642C134.387 62.0229 133.948 62.1054 133.516 62.1119C132.932 62.1207 132.394 62.0047 131.902 61.7641C131.411 61.5154 130.982 61.1858 130.615 60.7753C130.257 60.3566 129.978 59.8888 129.778 59.3717C129.578 58.8466 129.474 58.3161 129.466 57.7802Z" fill="white"/>
</svg>
